:version 1.10
:name ASF
:units
  mass 1
  length 1
  angle deg
:documentation
  ASF file generated by Kaydara
:root
  axis xyz
  order  tx ty tz rx ry rz
  position 0 0 0
  orientation 0 0 0
:bonedata
  begin
    id 1
    name RightUpLegDummy
    direction -0.718183 -0.695806 0.00816078
    length 4.904
    axis 0 0 0 xyz
  end
  begin
    id 2
    name RightUpLeg
    direction 3.53989e-006 -0.995788 0.0916897
    length 17.4976
    axis -3.49089 -0.000906621 0.000287158 xyz
    dof rx ry rz
  end
  begin
    id 3
    name RightLeg
    direction 0.00371093 -0.995096 -0.0988418
    length 16.5821
    axis 3.68512 0.0193738 -0.131023 xyz
    dof rx ry rz
  end
  begin
    id 4
    name RightFoot
    direction 0.000791514 -0.46099 0.887405
    length 3.77069
    axis 4.84075e-005 -0.120479 -0.188788 xyz
    dof rx ry rz
  end
  begin
    id 5
    name RightToes
    direction 0.00124746 -0.014064 0.9999
    length 3.85082
    axis 0.00048216 0.542163 -0.142577 xyz
    dof rx ry rz
  end
  begin
    id 6
    name SpineDummy
    direction 8.36599e-015 1 5.97571e-016
    length 4.6813
    axis 0 0 0 xyz
  end
  begin
    id 7
    name Spine
    direction -4.63632e-008 0.999988 0.00495137
    length 10.1015
    axis -0.00138897 0.000121419 3.25764e-006 xyz
    dof rx ry rz
  end
  begin
    id 8
    name Spine1
    direction 0 0 0
    length 0
    axis -0.00138896 0.000121452 2.39764e-006 xyz
    dof rx ry rz
  end
  begin
    id 9
    name HEadDummy
    direction -3.91456e-008 0.999999 0.00127422
    length 3.43865
    axis -0.00138896 0.000121452 2.39764e-006 xyz
  end
  begin
    id 10
    name HEad
    direction -0.0222688 0.980941 0.193023
    length 5.12695
    axis -0.00138895 0.000121452 2.39764e-006 xyz
    dof rx ry rz
  end
  begin
    id 11
    name LeftShoulder1Dummy
    direction 0.998891 -0.0402508 -0.0244456
    length 3.5433
    axis -0.00138896 0.000121452 2.39764e-006 xyz
  end
  begin
    id 12
    name LeftShoulder1
    direction 0.99951 -0.000327743 0.0313091
    length 4.05031
    axis -0.00138896 0.000121452 2.39764e-006 xyz
    dof rx ry rz
  end
  begin
    id 13
    name LeftArm
    direction 0.998561 -0.00100054 -0.0536182
    length 10.3537
    axis -23.1894 0.134784 0.96751 xyz
    dof rx ry rz
  end
  begin
    id 14
    name LeftForeArm
    direction 0.998903 0.00866434 0.046012
    length 8.70632
    axis -9.91835 -0.06569 -0.177792 xyz
    dof rx ry rz
  end
  begin
    id 15
    name LeftHand
    direction 0.992938 -0.0411636 0.11126
    length 5.32135
    axis -0.00960227 -0.00340091 0.185174 xyz
    dof rx ry rz
  end
  begin
    id 16
    name RightShoulderDummy
    direction -0.998891 -0.0402509 -0.0244414
    length 3.5433
    axis -0.00138896 0.000121452 2.39764e-006 xyz
  end
  begin
    id 17
    name RightShoulder
    direction -0.99951 -0.000327827 0.0313133
    length 4.05031
    axis 0.215806 0.000203644 -0.00680151 xyz
    dof rx ry rz
  end
  begin
    id 18
    name RightArm
    direction -0.998573 -0.000999583 -0.053403
    length 10.3947
    axis -23.2009 -0.134239 -0.9641 xyz
    dof rx ry rz
  end
  begin
    id 19
    name RightForeArm
    direction -0.998898 0.00868026 0.0461306
    length 8.68355
    axis -9.92322 0.0658061 0.178869 xyz
    dof rx ry rz
  end
  begin
    id 20
    name RightHand
    direction -0.992843 -0.0414603 0.112003
    length 5.28593
    axis -0.00960634 0.00330671 -0.185226 xyz
    dof rx ry rz
  end
  begin
    id 21
    name LeftUpLegDummy
    direction 0.718183 -0.695806 0.00816078
    length 4.904
    axis 0 0 0 xyz
  end
  begin
    id 22
    name LeftUpLeg
    direction -6.8115e-006 -0.995793 0.0916336
    length 17.4976
    axis -3.48766 0.00143441 -0.000523914 xyz
    dof rx ry rz
  end
  begin
    id 23
    name LeftLeg
    direction -0.00601357 -0.995091 -0.0987824
    length 16.5821
    axis 3.68177 -0.00654038 -0.00028478 xyz
    dof rx ry rz
  end
  begin
    id 24
    name LeftFoot
    direction -0.00417578 -0.460984 0.887399
    length 3.77069
    axis 1.87232e-006 4.66002e-005 -8.1837e-006 xyz
    dof rx ry rz
  end
  begin
    id 25
    name LeftToes
    direction 0.00818058 -0.00485161 0.999955
    length 3.85048
    axis 1.06246e-005 4.65855e-005 -8.18502e-006 xyz
    dof rx ry rz
  end
:hierarchy
  begin
    root RightUpLegDummy SpineDummy LeftUpLegDummy
    RightUpLegDummy RightUpLeg
    RightUpLeg RightLeg
    RightLeg RightFoot
    RightFoot RightToes
    SpineDummy Spine
    Spine Spine1
    Spine1 HEadDummy LeftShoulder1Dummy RightShoulderDummy
    HEadDummy HEad
    LeftShoulder1Dummy LeftShoulder1
    LeftShoulder1 LeftArm
    LeftArm LeftForeArm
    LeftForeArm LeftHand
    RightShoulderDummy RightShoulder
    RightShoulder RightArm
    RightArm RightForeArm
    RightForeArm RightHand
    LeftUpLegDummy LeftUpLeg
    LeftUpLeg LeftLeg
    LeftLeg LeftFoot
    LeftFoot LeftToes
  end

:SAMPLES-PER-SECOND 24
:FULLY-SPECIFIED
:DEGREES
1
root  1.18807 39.7011 24.9724 9.78418 -52.323 -3.30229
RightUpLeg  -8.30901 1.2697 -6.55613
RightLeg  27.5259 -12.0317 -6.94443
RightFoot  -8.81587 -0.310386 11.499
RightToes  -2.08645e-008 3.77894e-005 6.81332e-007
Spine  -1.34754 1.61772 -2.01191
Spine1  5.32579 1.03311 2.71246
HEad  -30.7178 30.3292 -14.6481
LeftShoulder1  6.45098 -12.2367 -34.9619
LeftArm  8.80414 11.125 -21.2449
LeftForeArm  167.287 -65.0706 -158.591
LeftHand  -0.166677 -3.81641 2.36466
RightShoulder  4.05046 6.80909 33.3881
RightArm  19.7264 -22.1932 24.2811
RightForeArm  155.785 69.9283 151.55
RightHand  -0.743404 7.60989 -6.98654
LeftUpLeg  -14.0035 1.32417 2.1272
LeftLeg  23.168 8.61038 4.35475
LeftFoot  -9.68635 0.143526 -5.91
LeftToes  1.24767e-006 1.47042e-008 1.32732e-009
2
root  1.06833 38.9754 24.4661 8.63176 -51.8765 -2.05101
RightUpLeg  -7.18138 -1.87582 -7.78065
RightLeg  26.716 -6.0881 -3.55123
RightFoot  -15.953 0.408306 13.418
RightToes  -2.08645e-008 3.77894e-005 6.81332e-007
Spine  -2.94255 1.58083 -3.94882
Spine1  8.33842 0.755471 3.69218
HEad  -32.7829 28.6475 -15.3583
LeftShoulder1  6.96662 -12.7438 -36.8121
LeftArm  5.98873 4.88049 -18.4745
LeftForeArm  166.448 -68.5537 -154.751
LeftHand  -0.290939 -3.49778 4.05649
RightShoulder  4.27839 6.94021 35.0627
RightArm  14.7307 -20.4366 27.0744
RightForeArm  153.129 73.1626 145.461
RightHand  -0.637292 8.06676 -5.85352
LeftUpLeg  -16.0786 -0.421533 1.73683
LeftLeg  27.4672 10.3794 6.15231
LeftFoot  -13.3561 -0.0211634 -5.58736
LeftToes  1.24767e-006 1.47042e-008 1.32732e-009
3
root  1.0088 39.1969 24.0716 9.90924 -53.2533 -4.0103
RightUpLeg  -6.61287 -3.41007 -6.43582
RightLeg  24.6461 -4.09171 -2.26216
RightFoot  -14.7672 0.232949 10.8174
RightToes  -2.08645e-008 3.77894e-005 6.81332e-007
Spine  -3.45144 2.23897 -1.0413
Spine1  9.72548 1.70611 1.97084
HEad  -34.823 27.509 -16.3991
LeftShoulder1  7.26412 -13.0382 -37.815
LeftArm  2.03332 5.22992 -21.0955
LeftForeArm  169.852 -70.7325 -152.347
LeftHand  -0.216936 -3.5486 3.07231
RightShoulder  4.41844 7.06788 35.8787
RightArm  11.0454 -21.0641 30.3459
RightForeArm  147.827 75.2657 139.538
RightHand  -0.612831 8.05643 -5.64605
LeftUpLeg  -15.6648 -1.13887 3.45713
LeftLeg  27.0514 12.3657 7.10347
LeftFoot  -11.7378 0.0447647 -6.53242
LeftToes  1.24767e-006 1.47042e-008 1.32732e-009
4
root  0.870832 40.1447 23.7067 11.9154 -55.6794 -6.01347
RightUpLeg  -6.94309 -2.93979 -5.15695
RightLeg  21.6103 -2.23869 -1.1914
RightFoot  -8.09836 -0.364015 10.8772
RightToes  -2.08645e-008 3.77894e-005 6.81332e-007
Spine  -2.68696 2.83276 0.728087
Spine1  7.74993 2.401 1.59098
HEad  -34.8903 28.5636 -17.0772
LeftShoulder1  7.18331 -12.9419 -37.589
LeftArm  -1.73103 12.9562 -27.7455
LeftForeArm  172.692 -69.1728 -154.818
LeftHand  -0.185798 -3.42917 2.69592
RightShoulder  4.36526 7.03563 35.5092
RightArm  11.1414 -23.6319 32.4014
RightForeArm  146.888 74.7523 140.736
RightHand  -0.625554 7.15538 -6.12957
LeftUpLeg  -13.6725 0.310571 5.38657
LeftLeg  21.864 12.9198 5.9693
LeftFoot  -5.25254 0.485991 -8.53694
LeftToes  1.24767e-006 1.47042e-008 1.32732e-009
5
root  0.548375 41.1288 23.1966 13.4286 -57.0335 -6.07339
RightUpLeg  -8.01101 -2.00549 -4.81876
RightLeg  18.5402 -0.150404 -0.267077
RightFoot  -1.88531 -1.05944 12.6327
RightToes  -2.08645e-008 3.77894e-005 6.81332e-007
Spine  -4.71528 2.53299 -0.730977
Spine1  7.16855 1.87959 2.91591
HEad  -33.6756 30.7015 -16.5437
LeftShoulder1  7.12236 -12.8822 -37.3834
LeftArm  -4.03596 21.0851 -32.9512
LeftForeArm  167.725 -66.3264 -157.441
LeftHand  -0.309137 -2.64721 4.68239
RightShoulder  4.34392 7.04923 35.2573
RightArm  13.1452 -25.5551 32.5998
RightForeArm  150.747 73.1723 145.125
RightHand  -0.469042 7.61363 -4.56162
LeftUpLeg  -12.7877 5.34531 6.63345
LeftLeg  16.1011 8.75837 3.03256
LeftFoot  2.27595 1.25191 -10.5779
LeftToes  1.24767e-006 1.47042e-008 1.32732e-009
6
root  0.226688 41.7302 22.6085 13.5691 -57.0829 -5.25201
RightUpLeg  -8.23243 -2.02558 -4.6063
RightLeg  16.266 0.372445 -0.157266
RightFoot  1.47557 -1.52209 13.5963
RightToes  -2.08645e-008 3.77894e-005 6.81332e-007
Spine  -5.82641 1.86961 -1.02084
Spine1  6.35601 1.4236 2.14771
HEad  -31.9607 31.8378 -15.3089
LeftShoulder1  7.20148 -12.9772 -37.6055
LeftArm  -4.07555 25.6731 -34.0446
LeftForeArm  163.421 -64.0821 -159.085
LeftHand  -0.361252 -2.40731 5.58634
RightShoulder  4.40864 7.10906 35.6289
RightArm  14.6509 -27.2077 31.3843
RightForeArm  155.991 71.3009 149.458
RightHand  -0.243977 8.71391 -2.38221
LeftUpLeg  -12.4561 8.51048 8.0555
LeftLeg  12.7191 3.9221 0.471531
LeftFoot  7.96419 2.08018 -12.473
LeftToes  1.24767e-006 1.47042e-008 1.32732e-009
7
root  0.0551666 41.8176 22.0213 12.5174 -56.8076 -4.68376
RightUpLeg  -7.35246 -1.35173 -4.40713
RightLeg  15.6003 1.47764 0.0452112
RightFoot  1.52271 -1.50925 13.4871
RightToes  -2.08645e-008 3.77894e-005 6.81332e-007
Spine  -5.22895 1.68281 0.849582
Spine1  6.09969 1.65982 -0.128439
HEad  -31.0825 31.5457 -14.8999
LeftShoulder1  7.05153 -12.8406 -37.0717
LeftArm  -2.62873 25.4848 -33.7104
LeftForeArm  165.975 -63.3701 -159.958
LeftHand  -0.253143 -2.82805 3.80373
RightShoulder  4.35125 7.06943 35.2485
RightArm  15.132 -27.9051 30.4968
RightForeArm  158.272 69.6456 152.307
RightHand  -0.257022 8.45091 -2.53217
LeftUpLeg  -11.8955 7.31126 9.26848
LeftLeg  12.0537 1.45949 0.192136
LeftFoot  9.81891 2.47504 -13.5278
LeftToes  1.24767e-006 1.47042e-008 1.32732e-009
8
root  -0.068531 41.2887 21.3678 10.3092 -56.5807 -3.49811
RightUpLeg  -5.68761 0.463895 -4.52704
RightLeg  15.9663 3.46771 0.545157
RightFoot  -3.2275 -0.781375 10.6766
RightToes  -2.08645e-008 3.77894e-005 6.81332e-007
Spine  -3.48933 1.84382 1.39455
Spine1  5.48026 2.00611 -0.830628
HEad  -30.265 30.8622 -14.5532
LeftShoulder1  6.68025 -12.4512 -35.833
LeftArm  -0.454121 22.4222 -33.5616
LeftForeArm  168.599 -64.437 -159.316
LeftHand  -0.162693 -3.21795 2.43515
RightShoulder  4.20821 6.96497 34.3049
RightArm  15.4009 -27.8857 29.2029
RightForeArm  158.44 68.3233 154.078
RightHand  -0.361188 7.62733 -3.58088
LeftUpLeg  -11.8504 4.16786 9.69184
LeftLeg  14.4694 1.78724 0.982366
LeftFoot  6.15995 2.07586 -13.6782
LeftToes  1.24767e-006 1.47042e-008 1.32732e-009
9
root  -0.201672 40.2813 20.6422 8.04343 -56.7983 -2.43266
RightUpLeg  -3.95163 2.84995 -3.75449
RightLeg  16.8325 1.6954 0.0622977
RightFoot  -11.3042 -0.0795895 5.80801
RightToes  -2.08645e-008 3.77894e-005 6.81332e-007
Spine  -1.75139 2.3132 0.993403
Spine1  5.25608 2.46606 -0.421779
HEad  -29.7679 30.3682 -14.4949
LeftShoulder1  6.69023 -12.4179 -35.9787
LeftArm  1.54783 17.3668 -31.6743
LeftForeArm  167.382 -66.0382 -157.693
LeftHand  -0.204585 -3.33557 2.9667
RightShoulder  4.06416 6.82056 33.4791
RightArm  15.0183 -26.0091 27.8323
RightForeArm  156.424 69.1578 152.725
RightHand  -0.53845 7.39922 -5.23571
LeftUpLeg  -12.5064 2.53076 10.1982
LeftLeg  19.2292 3.28955 1.59343
LeftFoot  -0.892352 1.27834 -13.877
LeftToes  1.24767e-006 1.47042e-008 1.32732e-009
10
root  -0.256853 39.2635 19.9238 7.19623 -57.2997 -2.99142
RightUpLeg  -3.90106 6.22988 -1.28429
RightLeg  19.8899 -4.08104 -1.8942
RightFoot  -18.2977 0.0236937 2.35743
RightToes  -2.08645e-008 3.77894e-005 6.81332e-007
Spine  -0.343053 2.71613 2.42388
Spine1  6.34156 3.06987 -1.12408
HEad  -30.866 30.0444 -15.379
LeftShoulder1  7.21052 -12.9032 -37.8409
LeftArm  2.11228 11.383 -28.2317
LeftForeArm  166.077 -67.9404 -155.489
LeftHand  -0.326227 -3.22034 4.64224
RightShoulder  4.06316 6.77453 33.6455
RightArm  13.6327 -21.4591 27.3296
RightForeArm  148.936 73.2291 144.539
RightHand  -0.580117 7.58932 -5.54003
LeftUpLeg  -13.5459 1.79296 11.4594
LeftLeg  24.3316 4.54212 2.58401
LeftFoot  -6.99227 0.578582 -14.0738
LeftToes  1.24767e-006 1.47042e-008 1.32732e-009
11
root  -0.259661 38.6663 19.3367 6.49966 -56.7223 -3.52792
RightUpLeg  -5.15579 7.58595 0.797532
RightLeg  24.6941 -7.43901 -3.94663
RightFoot  -21.6836 -0.0627379 0.922126
RightToes  -2.08645e-008 3.77894e-005 6.81332e-007
Spine  0.626572 2.5222 3.67839
Spine1  8.28468 3.04108 -1.63143
HEad  -33.6815 29.4158 -16.5672
LeftShoulder1  7.70267 -13.3897 -39.4241
LeftArm  1.53633 7.62113 -27.1923
LeftForeArm  164.599 -70.8412 -151.414
LeftHand  -0.380294 -3.20578 5.37953
RightShoulder  4.18764 6.89413 34.3792
RightArm  11.4749 -17.77 28.0338
RightForeArm  135.744 77.0925 130.662
RightHand  -0.624647 7.18786 -6.10306
LeftUpLeg  -14.3556 -1.6004 12.4829
LeftLeg  27.4969 6.73981 4.142
LeftFoot  -9.99479 0.224857 -13.9127
LeftToes  1.24767e-006 1.47042e-008 1.32732e-009
